STARTFONT 2.1
FONT -FontForge-Zen Tokyo Zoo-Book-R-Normal--16-160-72-72-P-75-ISO10646-1
SIZE 16 72 72
FONTBOUNDINGBOX 21 23 -2 -4
COMMENT "Generated by fontforge, http://fontforge.sourceforge.net"
COMMENT "Copyright 2021 The Zen Tokyo Zoo Project Authors (https://github.com/googlefonts/zen-tokyo-zoo)"
STARTPROPERTIES 39
FOUNDRY "FontForge"
FAMILY_NAME "Zen Tokyo Zoo"
WEIGHT_NAME "Book"
SLANT "R"
SETWIDTH_NAME "Normal"
ADD_STYLE_NAME ""
PIXEL_SIZE 16
POINT_SIZE 160
RESOLUTION_X 72
RESOLUTION_Y 72
SPACING "P"
AVERAGE_WIDTH 75
CHARSET_REGISTRY "ISO10646"
CHARSET_ENCODING "1"
FONTNAME_REGISTRY ""
CHARSET_COLLECTIONS "ISO10646-1"
FONT_NAME "ZenTokyoZoo-Regular"
FACE_NAME "Zen Tokyo Zoo Regular"
COPYRIGHT "Copyright 2021 The Zen Tokyo Zoo Project Authors (https://github.com/googlefonts/zen-tokyo-zoo)"
FONT_VERSION "1.002; ttfautohint (v1.8.3)"
FONT_ASCENT 13
FONT_DESCENT 3
UNDERLINE_POSITION -2
UNDERLINE_THICKNESS 1
X_HEIGHT 6
CAP_HEIGHT 13
RAW_ASCENT 800
RAW_DESCENT 200
NORM_SPACE 4
RELATIVE_WEIGHT 40
RELATIVE_SETWIDTH 50
SUPERSCRIPT_X 0
SUPERSCRIPT_Y 5
SUPERSCRIPT_SIZE 9
SUBSCRIPT_X 0
SUBSCRIPT_Y 1
SUBSCRIPT_SIZE 9
AVG_LOWERCASE_WIDTH 66
AVG_UPPERCASE_WIDTH 121
ENDPROPERTIES
CHARS 338
STARTCHAR CR
ENCODING 13
SWIDTH 600 0
DWIDTH 10 0
BBX 1 1 0 0
BITMAP
00
ENDCHAR
STARTCHAR space
ENCODING 32
SWIDTH 280 0
DWIDTH 4 0
BBX 1 1 0 0
BITMAP
00
ENDCHAR
STARTCHAR exclam
ENCODING 33
SWIDTH 196 0
DWIDTH 3 0
BBX 1 7 1 0
BITMAP
80
80
80
80
80
00
80
ENDCHAR
STARTCHAR quotedbl
ENCODING 34
SWIDTH 302 0
DWIDTH 5 0
BBX 4 2 0 5
BITMAP
D0
D0
ENDCHAR
STARTCHAR numbersign
ENCODING 35
SWIDTH 513 0
DWIDTH 8 0
BBX 6 7 1 0
BITMAP
6C
FC
FC
18
F4
FC
D8
ENDCHAR
STARTCHAR dollar
ENCODING 36
SWIDTH 379 0
DWIDTH 6 0
BBX 6 9 0 -1
BITMAP
10
58
A4
D0
78
34
DC
58
10
ENDCHAR
STARTCHAR percent
ENCODING 37
SWIDTH 493 0
DWIDTH 8 0
BBX 7 7 0 0
BITMAP
66
FC
74
1E
2E
3E
66
ENDCHAR
STARTCHAR ampersand
ENCODING 38
SWIDTH 487 0
DWIDTH 8 0
BBX 6 7 1 0
BITMAP
70
68
58
70
FC
D8
F4
ENDCHAR
STARTCHAR quotesingle
ENCODING 39
SWIDTH 146 0
DWIDTH 2 0
BBX 2 2 0 5
BITMAP
C0
C0
ENDCHAR
STARTCHAR parenleft
ENCODING 40
SWIDTH 210 0
DWIDTH 3 0
BBX 3 8 0 0
BITMAP
60
40
C0
C0
C0
C0
40
60
ENDCHAR
STARTCHAR parenright
ENCODING 41
SWIDTH 210 0
DWIDTH 3 0
BBX 3 8 0 0
BITMAP
C0
60
60
60
60
60
60
C0
ENDCHAR
STARTCHAR asterisk
ENCODING 42
SWIDTH 358 0
DWIDTH 6 0
BBX 4 4 1 3
BITMAP
40
B0
00
F0
ENDCHAR
STARTCHAR plus
ENCODING 43
SWIDTH 394 0
DWIDTH 6 0
BBX 5 5 1 1
BITMAP
60
F8
60
F8
60
ENDCHAR
STARTCHAR comma
ENCODING 44
SWIDTH 216 0
DWIDTH 3 0
BBX 2 2 1 -1
BITMAP
C0
80
ENDCHAR
STARTCHAR hyphen
ENCODING 45
SWIDTH 326 0
DWIDTH 5 0
BBX 3 2 1 2
BITMAP
E0
E0
ENDCHAR
STARTCHAR period
ENCODING 46
SWIDTH 176 0
DWIDTH 3 0
BBX 1 1 1 0
BITMAP
80
ENDCHAR
STARTCHAR slash
ENCODING 47
SWIDTH 298 0
DWIDTH 5 0
BBX 4 7 0 0
BITMAP
30
30
30
60
60
60
C0
ENDCHAR
STARTCHAR zero
ENCODING 48
SWIDTH 306 0
DWIDTH 5 0
BBX 4 7 0 0
BITMAP
70
B0
D0
D0
D0
B0
70
ENDCHAR
STARTCHAR one
ENCODING 49
SWIDTH 306 0
DWIDTH 5 0
BBX 3 7 1 0
BITMAP
E0
E0
60
60
60
60
60
ENDCHAR
STARTCHAR two
ENCODING 50
SWIDTH 299 0
DWIDTH 5 0
BBX 4 7 0 0
BITMAP
70
B0
30
50
A0
F0
F0
ENDCHAR
STARTCHAR three
ENCODING 51
SWIDTH 324 0
DWIDTH 5 0
BBX 5 7 0 0
BITMAP
70
A8
10
08
28
B8
70
ENDCHAR
STARTCHAR four
ENCODING 52
SWIDTH 339 0
DWIDTH 5 0
BBX 5 7 0 0
BITMAP
30
50
60
60
F8
F8
18
ENDCHAR
STARTCHAR five
ENCODING 53
SWIDTH 363 0
DWIDTH 6 0
BBX 4 7 1 0
BITMAP
F0
F0
C0
F0
30
F0
60
ENDCHAR
STARTCHAR six
ENCODING 54
SWIDTH 306 0
DWIDTH 5 0
BBX 4 7 0 0
BITMAP
70
B0
C0
B0
B0
B0
70
ENDCHAR
STARTCHAR seven
ENCODING 55
SWIDTH 298 0
DWIDTH 5 0
BBX 3 7 1 0
BITMAP
E0
E0
60
60
60
A0
C0
ENDCHAR
STARTCHAR eight
ENCODING 56
SWIDTH 306 0
DWIDTH 5 0
BBX 4 7 0 0
BITMAP
70
B0
D0
60
B0
B0
70
ENDCHAR
STARTCHAR nine
ENCODING 57
SWIDTH 306 0
DWIDTH 5 0
BBX 4 7 0 0
BITMAP
70
B0
B0
50
10
B0
70
ENDCHAR
STARTCHAR colon
ENCODING 58
SWIDTH 176 0
DWIDTH 3 0
BBX 1 4 1 0
BITMAP
80
00
00
80
ENDCHAR
STARTCHAR semicolon
ENCODING 59
SWIDTH 217 0
DWIDTH 3 0
BBX 2 5 1 -1
BITMAP
C0
00
00
C0
80
ENDCHAR
STARTCHAR less
ENCODING 60
SWIDTH 450 0
DWIDTH 7 0
BBX 6 7 1 0
BITMAP
04
1C
28
70
D0
3C
0C
ENDCHAR
STARTCHAR equal
ENCODING 61
SWIDTH 344 0
DWIDTH 6 0
BBX 4 5 1 1
BITMAP
F0
F0
00
F0
F0
ENDCHAR
STARTCHAR greater
ENCODING 62
SWIDTH 450 0
DWIDTH 7 0
BBX 6 7 1 0
BITMAP
80
C0
F0
2C
50
E0
80
ENDCHAR
STARTCHAR question
ENCODING 63
SWIDTH 346 0
DWIDTH 6 0
BBX 4 7 1 0
BITMAP
E0
D0
30
60
60
00
60
ENDCHAR
STARTCHAR at
ENCODING 64
SWIDTH 490 0
DWIDTH 8 0
BBX 7 7 0 0
BITMAP
3C
5A
7A
EA
5E
46
3C
ENDCHAR
STARTCHAR A
ENCODING 65
SWIDTH 798 0
DWIDTH 13 0
BBX 12 14 0 0
BITMAP
0700
0E80
0E80
0B80
1F40
1D40
15C0
39A0
38A0
2FE0
77D0
7F50
5070
E070
ENDCHAR
STARTCHAR B
ENCODING 66
SWIDTH 784 0
DWIDTH 13 0
BBX 11 14 1 0
BITMAP
BF80
BF40
BFC0
A0A0
A0A0
BFA0
BF40
A0E0
BF60
A0E0
A0E0
BF60
BFC0
BF80
ENDCHAR
STARTCHAR C
ENCODING 67
SWIDTH 776 0
DWIDTH 12 0
BBX 12 14 0 0
BITMAP
0FC0
17B0
3FE0
6840
7000
D000
E000
E000
D000
7000
6840
3FA0
17F0
0FC0
ENDCHAR
STARTCHAR D
ENCODING 68
SWIDTH 806 0
DWIDTH 13 0
BBX 11 14 1 0
BITMAP
BF00
BE80
BF40
A1A0
A0E0
A0E0
A060
A060
A0E0
A0E0
A1A0
BF40
BE80
BF00
ENDCHAR
STARTCHAR E
ENCODING 69
SWIDTH 677 0
DWIDTH 11 0
BBX 9 14 1 0
BITMAP
BF80
BF80
BF80
A000
A000
A000
BF00
BF00
BF00
A000
A000
BF80
BF80
BF80
ENDCHAR
STARTCHAR F
ENCODING 70
SWIDTH 677 0
DWIDTH 11 0
BBX 9 14 1 0
BITMAP
BF80
BF80
BF80
A000
A000
A000
BF00
BF00
BF00
A000
A000
A000
A000
A000
ENDCHAR
STARTCHAR G
ENCODING 71
SWIDTH 872 0
DWIDTH 14 0
BBX 13 14 0 0
BITMAP
0FC0
17F0
3FA8
6850
7020
D000
E1F8
E1F8
D1F8
7038
6858
3FF0
17A0
0FC0
ENDCHAR
STARTCHAR H
ENCODING 72
SWIDTH 781 0
DWIDTH 13 0
BBX 11 14 1 0
BITMAP
A0E0
A0E0
A0E0
A0E0
A0E0
A0E0
BFE0
BFE0
BFE0
A0E0
A0E0
A0E0
A0E0
A0E0
ENDCHAR
STARTCHAR I
ENCODING 73
SWIDTH 262 0
DWIDTH 4 0
BBX 2 14 1 0
BITMAP
C0
C0
C0
C0
C0
C0
C0
C0
C0
C0
C0
C0
C0
C0
ENDCHAR
STARTCHAR J
ENCODING 74
SWIDTH 674 0
DWIDTH 11 0
BBX 10 14 0 0
BITMAP
01C0
01C0
01C0
01C0
01C0
01C0
01C0
01C0
E1C0
E1C0
D1C0
6F40
7E80
1F00
ENDCHAR
STARTCHAR K
ENCODING 75
SWIDTH 739 0
DWIDTH 12 0
BBX 11 14 1 0
BITMAP
A1C0
A340
A580
A700
AD00
AE00
BA00
AC00
B600
AD00
A700
A580
A340
A1E0
ENDCHAR
STARTCHAR L
ENCODING 76
SWIDTH 604 0
DWIDTH 10 0
BBX 8 14 1 0
BITMAP
A0
A0
A0
A0
A0
A0
A0
A0
A0
A0
A0
BF
BF
BF
ENDCHAR
STARTCHAR M
ENCODING 77
SWIDTH 909 0
DWIDTH 15 0
BBX 13 14 1 0
BITMAP
A038
A078
B0B8
A8F8
B5B8
AEF8
B7B8
AD38
AA38
A638
A238
A038
A038
A038
ENDCHAR
STARTCHAR N
ENCODING 78
SWIDTH 796 0
DWIDTH 13 0
BBX 11 14 1 0
BITMAP
A0E0
A0E0
B0E0
A8E0
B4E0
ACE0
B6E0
AEE0
ABE0
A6E0
A3E0
A2E0
A1E0
A0E0
ENDCHAR
STARTCHAR O
ENCODING 79
SWIDTH 894 0
DWIDTH 14 0
BBX 14 14 0 0
BITMAP
0FC0
17F0
3FA8
6858
7034
D01C
E01C
E01C
D01C
7034
6858
3FA8
17F0
0FC0
ENDCHAR
STARTCHAR P
ENCODING 80
SWIDTH 743 0
DWIDTH 12 0
BBX 10 14 1 0
BITMAP
BF80
BF40
BFC0
A0C0
A0C0
BFC0
BF40
A0C0
BF00
A000
A000
A000
A000
A000
ENDCHAR
STARTCHAR Q
ENCODING 81
SWIDTH 911 0
DWIDTH 15 0
BBX 14 14 0 0
BITMAP
0FC0
17F0
3FA8
6858
7034
D01C
E01C
E01C
D02C
70D4
6868
3FB4
17F8
0FC8
ENDCHAR
STARTCHAR R
ENCODING 82
SWIDTH 745 0
DWIDTH 12 0
BBX 10 14 1 0
BITMAP
BF80
BF40
BFC0
A0C0
A0C0
BFC0
BF40
A0C0
BF00
A700
A380
A380
A140
A1C0
ENDCHAR
STARTCHAR S
ENCODING 83
SWIDTH 660 0
DWIDTH 11 0
BBX 10 14 0 0
BITMAP
1F00
7E80
6F40
D1C0
D000
6800
7F00
1B80
06C0
01C0
E1C0
7FC0
5E80
3F00
ENDCHAR
STARTCHAR T
ENCODING 84
SWIDTH 641 0
DWIDTH 10 0
BBX 10 14 0 0
BITMAP
FFC0
FFC0
FFC0
0A00
0A00
0A00
0A00
0A00
0A00
0A00
0A00
0A00
0A00
0A00
ENDCHAR
STARTCHAR U
ENCODING 85
SWIDTH 702 0
DWIDTH 11 0
BBX 9 14 1 0
BITMAP
A180
A180
A180
A180
A180
A180
A180
A180
A180
A180
E380
BD80
5F00
3E00
ENDCHAR
STARTCHAR V
ENCODING 86
SWIDTH 758 0
DWIDTH 12 0
BBX 12 14 0 0
BITMAP
E070
50D0
70E0
70E0
51A0
39C0
39C0
2B40
1D80
1D80
1A80
0F00
0E00
0E00
ENDCHAR
STARTCHAR W
ENCODING 87
SWIDTH 972 0
DWIDTH 16 0
BBX 15 14 0 0
BITMAP
E34E
D38E
538E
72D4
76DC
6FDC
2FAC
3B68
3DF8
3EE8
2AE8
1E50
1C70
1C70
ENDCHAR
STARTCHAR X
ENCODING 88
SWIDTH 712 0
DWIDTH 11 0
BBX 11 14 0 0
BITMAP
7160
69C0
3B40
3580
1E80
1700
0E00
1B00
1700
1D80
3B80
59C0
71C0
B0E0
ENDCHAR
STARTCHAR Y
ENCODING 89
SWIDTH 769 0
DWIDTH 12 0
BBX 12 14 0 0
BITMAP
F070
70E0
5960
35C0
1F40
1780
0E80
0100
0500
0500
0500
0500
0500
0500
ENDCHAR
STARTCHAR Z
ENCODING 90
SWIDTH 708 0
DWIDTH 11 0
BBX 11 14 0 0
BITMAP
7EE0
7FA0
7EC0
0380
0580
0700
0D00
0E00
1A00
2C00
3800
5FC0
77C0
DFC0
ENDCHAR
STARTCHAR bracketleft
ENCODING 91
SWIDTH 320 0
DWIDTH 5 0
BBX 3 8 1 -1
BITMAP
A0
A0
80
80
80
80
A0
A0
ENDCHAR
STARTCHAR backslash
ENCODING 92
SWIDTH 298 0
DWIDTH 5 0
BBX 4 7 0 0
BITMAP
C0
60
60
60
30
30
30
ENDCHAR
STARTCHAR bracketright
ENCODING 93
SWIDTH 320 0
DWIDTH 5 0
BBX 3 8 1 -1
BITMAP
A0
A0
20
20
20
20
A0
A0
ENDCHAR
STARTCHAR asciicircum
ENCODING 94
SWIDTH 309 0
DWIDTH 5 0
BBX 3 3 1 4
BITMAP
40
A0
E0
ENDCHAR
STARTCHAR underscore
ENCODING 95
SWIDTH 472 0
DWIDTH 8 0
BBX 6 2 1 0
BITMAP
FC
FC
ENDCHAR
STARTCHAR grave
ENCODING 96
SWIDTH 195 0
DWIDTH 3 0
BBX 1 2 1 8
BITMAP
80
80
ENDCHAR
STARTCHAR a
ENCODING 97
SWIDTH 414 0
DWIDTH 7 0
BBX 6 7 0 0
BITMAP
30
38
58
74
7C
BC
CC
ENDCHAR
STARTCHAR b
ENCODING 98
SWIDTH 423 0
DWIDTH 7 0
BBX 5 7 1 0
BITMAP
F8
F8
F8
88
F8
F8
F8
ENDCHAR
STARTCHAR c
ENCODING 99
SWIDTH 446 0
DWIDTH 7 0
BBX 7 7 0 0
BITMAP
3C
5A
A4
C0
A4
5A
3C
ENDCHAR
STARTCHAR d
ENCODING 100
SWIDTH 450 0
DWIDTH 7 0
BBX 6 7 1 0
BITMAP
F0
F8
8C
8C
8C
F8
F0
ENDCHAR
STARTCHAR e
ENCODING 101
SWIDTH 363 0
DWIDTH 6 0
BBX 5 7 1 0
BITMAP
F8
F8
80
F0
F0
F8
F8
ENDCHAR
STARTCHAR f
ENCODING 102
SWIDTH 365 0
DWIDTH 6 0
BBX 5 7 1 0
BITMAP
F8
F8
80
F0
F0
80
80
ENDCHAR
STARTCHAR g
ENCODING 103
SWIDTH 483 0
DWIDTH 8 0
BBX 7 7 0 0
BITMAP
3C
5A
A4
CE
AE
5A
3C
ENDCHAR
STARTCHAR h
ENCODING 104
SWIDTH 428 0
DWIDTH 7 0
BBX 5 7 1 0
BITMAP
98
98
98
F8
F8
98
98
ENDCHAR
STARTCHAR i
ENCODING 105
SWIDTH 176 0
DWIDTH 3 0
BBX 1 7 1 0
BITMAP
80
80
80
80
80
80
80
ENDCHAR
STARTCHAR j
ENCODING 106
SWIDTH 390 0
DWIDTH 6 0
BBX 6 7 0 0
BITMAP
0C
0C
0C
0C
CC
B4
78
ENDCHAR
STARTCHAR k
ENCODING 107
SWIDTH 381 0
DWIDTH 6 0
BBX 5 7 1 0
BITMAP
B8
B0
D0
A0
E0
B0
B8
ENDCHAR
STARTCHAR l
ENCODING 108
SWIDTH 330 0
DWIDTH 5 0
BBX 4 7 1 0
BITMAP
80
80
80
80
80
F0
F0
ENDCHAR
STARTCHAR m
ENCODING 109
SWIDTH 501 0
DWIDTH 8 0
BBX 6 7 1 0
BITMAP
CC
CC
FC
B4
A4
84
84
ENDCHAR
STARTCHAR n
ENCODING 110
SWIDTH 444 0
DWIDTH 7 0
BBX 5 7 1 0
BITMAP
C8
C8
E8
D8
B8
98
98
ENDCHAR
STARTCHAR o
ENCODING 111
SWIDTH 494 0
DWIDTH 8 0
BBX 7 7 0 0
BITMAP
3C
5A
A6
C2
A6
5A
3C
ENDCHAR
STARTCHAR p
ENCODING 112
SWIDTH 412 0
DWIDTH 7 0
BBX 5 7 1 0
BITMAP
F0
F8
F8
88
F0
80
80
ENDCHAR
STARTCHAR q
ENCODING 113
SWIDTH 494 0
DWIDTH 8 0
BBX 7 7 0 0
BITMAP
3C
5A
A6
C2
A6
5E
3E
ENDCHAR
STARTCHAR r
ENCODING 114
SWIDTH 412 0
DWIDTH 7 0
BBX 5 7 1 0
BITMAP
F0
F8
F8
88
F0
A8
98
ENDCHAR
STARTCHAR s
ENCODING 115
SWIDTH 379 0
DWIDTH 6 0
BBX 6 7 0 0
BITMAP
78
B4
C0
78
1C
B4
78
ENDCHAR
STARTCHAR t
ENCODING 116
SWIDTH 349 0
DWIDTH 6 0
BBX 5 7 0 0
BITMAP
F8
F8
30
30
30
30
30
ENDCHAR
STARTCHAR u
ENCODING 117
SWIDTH 400 0
DWIDTH 6 0
BBX 5 7 1 0
BITMAP
98
98
98
98
98
E8
70
ENDCHAR
STARTCHAR v
ENCODING 118
SWIDTH 394 0
DWIDTH 6 0
BBX 6 7 0 0
BITMAP
CC
CC
74
78
58
28
30
ENDCHAR
STARTCHAR w
ENCODING 119
SWIDTH 521 0
DWIDTH 8 0
BBX 8 7 0 0
BITMAP
DB
DB
5B
6D
6E
5A
56
ENDCHAR
STARTCHAR x
ENCODING 120
SWIDTH 369 0
DWIDTH 6 0
BBX 6 7 0 0
BITMAP
B4
78
50
30
68
78
DC
ENDCHAR
STARTCHAR y
ENCODING 121
SWIDTH 422 0
DWIDTH 7 0
BBX 7 7 0 0
BITMAP
EE
6C
58
28
30
30
30
ENDCHAR
STARTCHAR z
ENCODING 122
SWIDTH 409 0
DWIDTH 7 0
BBX 5 7 1 0
BITMAP
F8
F8
30
60
A0
F8
F8
ENDCHAR
STARTCHAR braceleft
ENCODING 123
SWIDTH 443 0
DWIDTH 7 0
BBX 5 8 1 -1
BITMAP
28
28
20
A0
A0
20
28
28
ENDCHAR
STARTCHAR bar
ENCODING 124
SWIDTH 196 0
DWIDTH 3 0
BBX 1 8 1 0
BITMAP
80
80
80
80
80
80
80
80
ENDCHAR
STARTCHAR braceright
ENCODING 125
SWIDTH 506 0
DWIDTH 8 0
BBX 5 8 2 -1
BITMAP
A0
A0
20
28
28
20
A0
A0
ENDCHAR
STARTCHAR asciitilde
ENCODING 126
SWIDTH 450 0
DWIDTH 7 0
BBX 6 3 1 2
BITMAP
C4
FC
98
ENDCHAR
STARTCHAR uni00A0
ENCODING 160
SWIDTH 280 0
DWIDTH 4 0
BBX 1 1 0 0
BITMAP
00
ENDCHAR
STARTCHAR exclamdown
ENCODING 161
SWIDTH 196 0
DWIDTH 3 0
BBX 1 7 1 -2
BITMAP
80
00
80
80
80
80
80
ENDCHAR
STARTCHAR cent
ENCODING 162
SWIDTH 305 0
DWIDTH 5 0
BBX 5 8 0 -1
BITMAP
20
70
B8
C0
C0
B8
70
20
ENDCHAR
STARTCHAR sterling
ENCODING 163
SWIDTH 408 0
DWIDTH 7 0
BBX 6 7 0 0
BITMAP
70
B8
F8
F8
60
FC
FC
ENDCHAR
STARTCHAR currency
ENCODING 164
SWIDTH 401 0
DWIDTH 6 0
BBX 6 6 0 0
BITMAP
48
B4
58
58
F4
48
ENDCHAR
STARTCHAR yen
ENCODING 165
SWIDTH 423 0
DWIDTH 7 0
BBX 7 7 0 0
BITMAP
EE
6C
38
28
74
74
30
ENDCHAR
STARTCHAR brokenbar
ENCODING 166
SWIDTH 196 0
DWIDTH 3 0
BBX 1 7 1 0
BITMAP
80
80
80
00
80
80
80
ENDCHAR
STARTCHAR section
ENCODING 167
SWIDTH 322 0
DWIDTH 5 0
BBX 5 7 0 0
BITMAP
78
B0
68
58
F0
28
70
ENDCHAR
STARTCHAR dieresis
ENCODING 168
SWIDTH 287 0
DWIDTH 5 0
BBX 3 1 1 8
BITMAP
A0
ENDCHAR
STARTCHAR copyright
ENCODING 169
SWIDTH 493 0
DWIDTH 8 0
BBX 7 8 0 0
BITMAP
3C
42
5A
A2
A2
5A
42
3C
ENDCHAR
STARTCHAR ordfeminine
ENCODING 170
SWIDTH 331 0
DWIDTH 5 0
BBX 4 4 1 3
BITMAP
60
E0
E0
F0
ENDCHAR
STARTCHAR guillemotleft
ENCODING 171
SWIDTH 298 0
DWIDTH 5 0
BBX 3 3 1 2
BITMAP
A0
A0
A0
ENDCHAR
STARTCHAR logicalnot
ENCODING 172
SWIDTH 420 0
DWIDTH 7 0
BBX 5 4 1 1
BITMAP
F8
00
F8
18
ENDCHAR
STARTCHAR uni00AD
ENCODING 173
SWIDTH 326 0
DWIDTH 5 0
BBX 3 2 1 2
BITMAP
E0
E0
ENDCHAR
STARTCHAR registered
ENCODING 174
SWIDTH 493 0
DWIDTH 8 0
BBX 7 8 0 0
BITMAP
3C
42
42
9A
9A
6A
42
3C
ENDCHAR
STARTCHAR macron
ENCODING 175
SWIDTH 331 0
DWIDTH 5 0
BBX 4 1 1 8
BITMAP
F0
ENDCHAR
STARTCHAR degree
ENCODING 176
SWIDTH 298 0
DWIDTH 5 0
BBX 3 4 1 3
BITMAP
40
E0
E0
40
ENDCHAR
STARTCHAR plusminus
ENCODING 177
SWIDTH 418 0
DWIDTH 7 0
BBX 5 7 1 0
BITMAP
60
E8
60
E8
60
F8
F8
ENDCHAR
STARTCHAR uni00B2
ENCODING 178
SWIDTH 233 0
DWIDTH 4 0
BBX 2 4 1 3
BITMAP
C0
C0
C0
C0
ENDCHAR
STARTCHAR uni00B3
ENCODING 179
SWIDTH 228 0
DWIDTH 4 0
BBX 2 4 1 3
BITMAP
C0
C0
40
C0
ENDCHAR
STARTCHAR acute
ENCODING 180
SWIDTH 195 0
DWIDTH 3 0
BBX 1 2 1 8
BITMAP
80
80
ENDCHAR
STARTCHAR uni00B5
ENCODING 181
SWIDTH 506 0
DWIDTH 8 0
BBX 7 9 1 -2
BITMAP
98
98
98
98
98
AC
FE
80
80
ENDCHAR
STARTCHAR paragraph
ENCODING 182
SWIDTH 435 0
DWIDTH 7 0
BBX 6 7 0 0
BITMAP
7C
FC
BC
9C
7C
1C
1C
ENDCHAR
STARTCHAR periodcentered
ENCODING 183
SWIDTH 176 0
DWIDTH 3 0
BBX 1 1 1 3
BITMAP
80
ENDCHAR
STARTCHAR cedilla
ENCODING 184
SWIDTH 261 0
DWIDTH 4 0
BBX 2 3 1 -3
BITMAP
C0
40
C0
ENDCHAR
STARTCHAR uni00B9
ENCODING 185
SWIDTH 218 0
DWIDTH 3 0
BBX 2 4 1 3
BITMAP
C0
C0
40
40
ENDCHAR
STARTCHAR ordmasculine
ENCODING 186
SWIDTH 335 0
DWIDTH 5 0
BBX 4 4 1 3
BITMAP
E0
D0
B0
E0
ENDCHAR
STARTCHAR guillemotright
ENCODING 187
SWIDTH 298 0
DWIDTH 5 0
BBX 3 3 1 2
BITMAP
A0
C0
A0
ENDCHAR
STARTCHAR onequarter
ENCODING 188
SWIDTH 429 0
DWIDTH 7 0
BBX 6 7 0 0
BITMAP
C4
48
48
10
14
2C
6C
ENDCHAR
STARTCHAR onehalf
ENCODING 189
SWIDTH 437 0
DWIDTH 7 0
BBX 7 7 0 0
BITMAP
CC
48
50
1C
26
2C
4C
ENDCHAR
STARTCHAR threequarters
ENCODING 190
SWIDTH 409 0
DWIDTH 7 0
BBX 6 7 0 0
BITMAP
CC
68
F0
50
2C
6C
4C
ENDCHAR
STARTCHAR questiondown
ENCODING 191
SWIDTH 346 0
DWIDTH 6 0
BBX 4 7 1 -1
BITMAP
60
00
60
A0
C0
F0
60
ENDCHAR
STARTCHAR Agrave
ENCODING 192
SWIDTH 798 0
DWIDTH 13 0
BBX 12 19 0 0
BITMAP
1400
0C00
0A00
0600
0000
0700
0E80
0E80
0B80
1F40
1D40
15C0
39A0
38A0
2FE0
77D0
7F50
5070
E070
ENDCHAR
STARTCHAR Aacute
ENCODING 193
SWIDTH 798 0
DWIDTH 13 0
BBX 12 19 0 0
BITMAP
0140
0180
0280
0300
0000
0700
0E80
0E80
0B80
1F40
1D40
15C0
39A0
38A0
2FE0
77D0
7F50
5070
E070
ENDCHAR
STARTCHAR Acircumflex
ENCODING 194
SWIDTH 798 0
DWIDTH 13 0
BBX 12 19 0 0
BITMAP
0600
0B00
0E80
19C0
0000
0700
0E80
0E80
0B80
1F40
1D40
15C0
39A0
38A0
2FE0
77D0
7F50
5070
E070
ENDCHAR
STARTCHAR Atilde
ENCODING 195
SWIDTH 798 0
DWIDTH 13 0
BBX 12 18 0 0
BITMAP
0C40
1280
1180
0000
0700
0E80
0E80
0B80
1F40
1D40
15C0
39A0
38A0
2FE0
77D0
7F50
5070
E070
ENDCHAR
STARTCHAR Adieresis
ENCODING 196
SWIDTH 798 0
DWIDTH 13 0
BBX 12 19 0 0
BITMAP
1880
2540
2540
1880
0000
0700
0E80
0E80
0B80
1F40
1D40
15C0
39A0
38A0
2FE0
77D0
7F50
5070
E070
ENDCHAR
STARTCHAR Aring
ENCODING 197
SWIDTH 798 0
DWIDTH 13 0
BBX 12 18 0 0
BITMAP
0600
0500
0500
0600
0500
0E80
0E80
0B80
1F40
1D40
15C0
39A0
38A0
2FE0
77D0
7F50
5070
E070
ENDCHAR
STARTCHAR AE
ENCODING 198
SWIDTH 1078 0
DWIDTH 17 0
BBX 17 14 0 0
BITMAP
017F80
03FF80
03FF80
07C000
05C000
0DC000
0FDF00
1BBF00
1CBF00
34A000
3AE000
6FFF80
77FF80
A0EF80
ENDCHAR
STARTCHAR Ccedilla
ENCODING 199
SWIDTH 776 0
DWIDTH 12 0
BBX 12 18 0 -4
BITMAP
0FC0
17B0
3FE0
6840
7000
D000
E000
E000
D000
7000
6840
3FA0
17F0
0DC0
0200
0700
0100
0700
ENDCHAR
STARTCHAR Egrave
ENCODING 200
SWIDTH 677 0
DWIDTH 11 0
BBX 9 19 1 0
BITMAP
1800
0C00
0C00
0600
0000
BF80
BF80
BF80
A000
A000
A000
BF00
BF00
BF00
A000
A000
BF80
BF80
BF80
ENDCHAR
STARTCHAR Eacute
ENCODING 201
SWIDTH 677 0
DWIDTH 11 0
BBX 9 19 1 0
BITMAP
0600
0A00
0C00
1400
0000
BF80
BF80
BF80
A000
A000
A000
BF00
BF00
BF00
A000
A000
BF80
BF80
BF80
ENDCHAR
STARTCHAR Ecircumflex
ENCODING 202
SWIDTH 677 0
DWIDTH 11 0
BBX 9 19 1 0
BITMAP
0C00
1A00
2D00
3300
0000
BF80
BF80
BF80
A000
A000
A000
BF00
BF00
BF00
A000
A000
BF80
BF80
BF80
ENDCHAR
STARTCHAR Edieresis
ENCODING 203
SWIDTH 677 0
DWIDTH 11 0
BBX 9 19 1 0
BITMAP
3100
4A80
4A80
3100
0000
BF80
BF80
BF80
A000
A000
A000
BF00
BF00
BF00
A000
A000
BF80
BF80
BF80
ENDCHAR
STARTCHAR Igrave
ENCODING 204
SWIDTH 262 0
DWIDTH 4 0
BBX 4 19 -1 0
BITMAP
C0
A0
60
30
00
30
30
30
30
30
30
30
30
30
30
30
30
30
30
ENDCHAR
STARTCHAR Iacute
ENCODING 205
SWIDTH 262 0
DWIDTH 4 0
BBX 4 19 1 0
BITMAP
30
50
60
E0
00
A0
A0
A0
A0
A0
A0
A0
A0
A0
A0
A0
A0
A0
A0
ENDCHAR
STARTCHAR Icircumflex
ENCODING 206
SWIDTH 262 0
DWIDTH 4 0
BBX 7 19 -2 0
BITMAP
18
34
5C
66
80
14
14
14
14
14
14
14
14
14
14
14
14
14
14
ENDCHAR
STARTCHAR Idieresis
ENCODING 207
SWIDTH 262 0
DWIDTH 4 0
BBX 8 19 -2 0
BITMAP
66
99
99
66
00
14
14
14
14
14
14
14
14
14
14
14
14
14
14
ENDCHAR
STARTCHAR Eth
ENCODING 208
SWIDTH 856 0
DWIDTH 14 0
BBX 13 14 0 0
BITMAP
77C0
7720
77D0
7068
7038
0038
FE38
FE38
FE38
7038
7068
77D0
77A0
77C0
ENDCHAR
STARTCHAR Ntilde
ENCODING 209
SWIDTH 796 0
DWIDTH 13 0
BBX 11 18 1 0
BITMAP
1880
2500
2300
0000
A0E0
A0E0
B0E0
A8E0
B4E0
ACE0
B6E0
AEE0
ABE0
A6E0
A3E0
A2E0
A1E0
A0E0
ENDCHAR
STARTCHAR Ograve
ENCODING 210
SWIDTH 894 0
DWIDTH 14 0
BBX 14 19 0 0
BITMAP
0C00
0600
0600
0300
0000
0FC0
17F0
3FA8
6858
7034
D01C
E01C
E01C
D01C
7034
6858
3FA8
17F0
0FC0
ENDCHAR
STARTCHAR Oacute
ENCODING 211
SWIDTH 894 0
DWIDTH 14 0
BBX 14 19 0 0
BITMAP
00C0
0180
0180
0300
0000
0FC0
17F0
3FA8
6858
7034
D01C
E01C
E01C
D01C
7034
6858
3FA8
17F0
0FC0
ENDCHAR
STARTCHAR Ocircumflex
ENCODING 212
SWIDTH 894 0
DWIDTH 14 0
BBX 14 19 0 0
BITMAP
0300
0680
0B80
0CC0
0000
0FC0
17F0
3FA8
6858
7034
D01C
E01C
E01C
D01C
7034
6858
3FA8
17F0
0FC0
ENDCHAR
STARTCHAR Otilde
ENCODING 213
SWIDTH 894 0
DWIDTH 14 0
BBX 14 18 0 0
BITMAP
0640
0940
0880
0000
0FC0
17F0
3FA8
6858
7034
D01C
E01C
E01C
D01C
7034
6858
3FA8
17F0
0FC0
ENDCHAR
STARTCHAR Odieresis
ENCODING 214
SWIDTH 894 0
DWIDTH 14 0
BBX 14 19 0 0
BITMAP
0CC0
12A0
12A0
0CC0
0000
0FC0
17F0
3FA8
6858
7034
D01C
E01C
E01C
D01C
7034
6858
3FA8
17F0
0FC0
ENDCHAR
STARTCHAR multiply
ENCODING 215
SWIDTH 370 0
DWIDTH 6 0
BBX 4 4 1 1
BITMAP
F0
50
B0
F0
ENDCHAR
STARTCHAR Oslash
ENCODING 216
SWIDTH 894 0
DWIDTH 14 0
BBX 14 14 0 0
BITMAP
0FE0
17B8
3FE8
68B8
70E8
D1AC
E6DC
ED9C
EE1C
7C28
7458
2BA8
77F0
0FC0
ENDCHAR
STARTCHAR Ugrave
ENCODING 217
SWIDTH 702 0
DWIDTH 11 0
BBX 9 19 1 0
BITMAP
5000
3000
1800
1800
0000
A180
A180
A180
A180
A180
A180
A180
A180
A180
A180
E380
BD80
5F00
3E00
ENDCHAR
STARTCHAR Uacute
ENCODING 218
SWIDTH 702 0
DWIDTH 11 0
BBX 9 19 1 0
BITMAP
0500
0600
0A00
0C00
0000
A180
A180
A180
A180
A180
A180
A180
A180
A180
A180
E380
BD80
5F00
3E00
ENDCHAR
STARTCHAR Ucircumflex
ENCODING 219
SWIDTH 702 0
DWIDTH 11 0
BBX 9 19 1 0
BITMAP
1400
1C00
3600
6500
0000
A180
A180
A180
A180
A180
A180
A180
A180
A180
A180
E380
BD80
5F00
3E00
ENDCHAR
STARTCHAR Udieresis
ENCODING 220
SWIDTH 702 0
DWIDTH 11 0
BBX 9 19 1 0
BITMAP
2300
5480
5480
2300
0000
A180
A180
A180
A180
A180
A180
A180
A180
A180
A180
E380
BD80
5F00
3E00
ENDCHAR
STARTCHAR Yacute
ENCODING 221
SWIDTH 769 0
DWIDTH 12 0
BBX 12 19 0 0
BITMAP
0180
0280
0300
0600
0000
F070
70E0
5960
35C0
1F40
1780
0E80
0100
0500
0500
0500
0500
0500
0500
ENDCHAR
STARTCHAR Thorn
ENCODING 222
SWIDTH 743 0
DWIDTH 12 0
BBX 10 14 1 0
BITMAP
A000
A000
A000
BF80
BF40
BFC0
A0C0
A0C0
BFC0
BF40
BF80
A000
A000
A000
ENDCHAR
STARTCHAR germandbls
ENCODING 223
SWIDTH 424 0
DWIDTH 7 0
BBX 5 7 1 0
BITMAP
F0
F8
B8
88
B8
B8
B8
ENDCHAR
STARTCHAR agrave
ENCODING 224
SWIDTH 414 0
DWIDTH 7 0
BBX 6 10 0 0
BITMAP
20
10
00
30
38
58
74
7C
BC
CC
ENDCHAR
STARTCHAR aacute
ENCODING 225
SWIDTH 414 0
DWIDTH 7 0
BBX 6 10 0 0
BITMAP
08
10
00
30
38
58
74
7C
BC
CC
ENDCHAR
STARTCHAR acircumflex
ENCODING 226
SWIDTH 414 0
DWIDTH 7 0
BBX 6 10 0 0
BITMAP
10
28
00
30
38
58
74
7C
BC
CC
ENDCHAR
STARTCHAR atilde
ENCODING 227
SWIDTH 414 0
DWIDTH 7 0
BBX 6 10 0 0
BITMAP
28
58
00
30
38
58
74
7C
BC
CC
ENDCHAR
STARTCHAR adieresis
ENCODING 228
SWIDTH 414 0
DWIDTH 7 0
BBX 6 9 0 0
BITMAP
28
00
30
38
58
74
7C
BC
CC
ENDCHAR
STARTCHAR aring
ENCODING 229
SWIDTH 414 0
DWIDTH 7 0
BBX 6 10 0 0
BITMAP
30
10
00
30
38
58
74
7C
BC
CC
ENDCHAR
STARTCHAR ae
ENCODING 230
SWIDTH 593 0
DWIDTH 9 0
BBX 9 7 0 0
BITMAP
1F80
1F80
2C00
3F80
6F80
7F80
CB80
ENDCHAR
STARTCHAR ccedilla
ENCODING 231
SWIDTH 446 0
DWIDTH 7 0
BBX 7 10 0 -3
BITMAP
3C
5A
A4
C0
A4
5A
3C
18
08
38
ENDCHAR
STARTCHAR egrave
ENCODING 232
SWIDTH 363 0
DWIDTH 6 0
BBX 5 10 1 0
BITMAP
40
20
00
F8
F8
80
F0
F0
F8
F8
ENDCHAR
STARTCHAR eacute
ENCODING 233
SWIDTH 363 0
DWIDTH 6 0
BBX 5 10 1 0
BITMAP
10
20
00
F8
F8
80
F0
F0
F8
F8
ENDCHAR
STARTCHAR ecircumflex
ENCODING 234
SWIDTH 363 0
DWIDTH 6 0
BBX 5 10 1 0
BITMAP
20
50
00
F8
F8
80
F0
F0
F8
F8
ENDCHAR
STARTCHAR edieresis
ENCODING 235
SWIDTH 363 0
DWIDTH 6 0
BBX 5 9 1 0
BITMAP
50
00
F8
F8
80
F0
F0
F8
F8
ENDCHAR
STARTCHAR igrave
ENCODING 236
SWIDTH 176 0
DWIDTH 3 0
BBX 2 10 0 0
BITMAP
80
40
00
C0
C0
C0
C0
C0
C0
C0
ENDCHAR
STARTCHAR iacute
ENCODING 237
SWIDTH 176 0
DWIDTH 3 0
BBX 2 10 1 0
BITMAP
40
80
00
80
80
80
80
80
80
80
ENDCHAR
STARTCHAR icircumflex
ENCODING 238
SWIDTH 176 0
DWIDTH 3 0
BBX 3 10 0 0
BITMAP
40
A0
00
C0
C0
C0
C0
C0
C0
C0
ENDCHAR
STARTCHAR idieresis
ENCODING 239
SWIDTH 176 0
DWIDTH 3 0
BBX 3 9 0 0
BITMAP
A0
00
C0
C0
C0
C0
C0
C0
C0
ENDCHAR
STARTCHAR eth
ENCODING 240
SWIDTH 455 0
DWIDTH 7 0
BBX 7 7 0 0
BITMAP
B8
BC
A6
E6
A6
BC
B8
ENDCHAR
STARTCHAR ntilde
ENCODING 241
SWIDTH 444 0
DWIDTH 7 0
BBX 5 10 1 0
BITMAP
68
90
00
C8
C8
E8
D8
B8
98
98
ENDCHAR
STARTCHAR ograve
ENCODING 242
SWIDTH 494 0
DWIDTH 8 0
BBX 7 10 0 0
BITMAP
20
10
00
3C
5A
A6
C2
A6
5A
3C
ENDCHAR
STARTCHAR oacute
ENCODING 243
SWIDTH 494 0
DWIDTH 8 0
BBX 7 10 0 0
BITMAP
08
08
00
3C
5A
A6
C2
A6
5A
3C
ENDCHAR
STARTCHAR ocircumflex
ENCODING 244
SWIDTH 494 0
DWIDTH 8 0
BBX 7 10 0 0
BITMAP
10
28
00
3C
5A
A6
C2
A6
5A
3C
ENDCHAR
STARTCHAR otilde
ENCODING 245
SWIDTH 494 0
DWIDTH 8 0
BBX 7 10 0 0
BITMAP
14
28
00
3C
5A
A6
C2
A6
5A
3C
ENDCHAR
STARTCHAR odieresis
ENCODING 246
SWIDTH 494 0
DWIDTH 8 0
BBX 7 9 0 0
BITMAP
38
00
3C
5A
A6
C2
A6
5A
3C
ENDCHAR
STARTCHAR divide
ENCODING 247
SWIDTH 418 0
DWIDTH 7 0
BBX 5 6 1 0
BITMAP
20
20
F8
F8
20
60
ENDCHAR
STARTCHAR oslash
ENCODING 248
SWIDTH 494 0
DWIDTH 8 0
BBX 7 7 0 0
BITMAP
3A
5C
AA
D2
D6
3A
7C
ENDCHAR
STARTCHAR ugrave
ENCODING 249
SWIDTH 400 0
DWIDTH 6 0
BBX 5 10 1 0
BITMAP
40
40
00
98
98
98
98
98
E8
70
ENDCHAR
STARTCHAR uacute
ENCODING 250
SWIDTH 400 0
DWIDTH 6 0
BBX 5 10 1 0
BITMAP
10
20
00
98
98
98
98
98
E8
70
ENDCHAR
STARTCHAR ucircumflex
ENCODING 251
SWIDTH 400 0
DWIDTH 6 0
BBX 5 10 1 0
BITMAP
20
F0
00
98
98
98
98
98
E8
70
ENDCHAR
STARTCHAR udieresis
ENCODING 252
SWIDTH 400 0
DWIDTH 6 0
BBX 5 9 1 0
BITMAP
50
00
98
98
98
98
98
E8
70
ENDCHAR
STARTCHAR yacute
ENCODING 253
SWIDTH 422 0
DWIDTH 7 0
BBX 7 10 0 0
BITMAP
08
10
00
EE
6C
58
28
30
30
30
ENDCHAR
STARTCHAR thorn
ENCODING 254
SWIDTH 412 0
DWIDTH 7 0
BBX 5 7 1 0
BITMAP
80
F0
F8
98
F8
F0
80
ENDCHAR
STARTCHAR ydieresis
ENCODING 255
SWIDTH 422 0
DWIDTH 7 0
BBX 7 9 0 0
BITMAP
28
00
EE
6C
58
28
30
30
30
ENDCHAR
STARTCHAR Edotaccent
ENCODING 278
SWIDTH 677 0
DWIDTH 11 0
BBX 9 16 1 0
BITMAP
0400
0400
BF80
BF80
BF80
A000
A000
A000
BF00
BF00
BF00
A000
A000
BF80
BF80
BF80
ENDCHAR
STARTCHAR edotaccent
ENCODING 279
SWIDTH 363 0
DWIDTH 6 0
BBX 5 10 1 0
BITMAP
20
20
00
F8
F8
80
F0
F0
F8
F8
ENDCHAR
STARTCHAR dotlessi
ENCODING 305
SWIDTH 176 0
DWIDTH 3 0
BBX 1 7 1 0
BITMAP
80
80
80
80
80
80
80
ENDCHAR
STARTCHAR OE
ENCODING 338
SWIDTH 1221 0
DWIDTH 20 0
BBX 19 14 0 0
BITMAP
0FF7E0
17F7E0
3FF7E0
687000
707000
D07000
E077C0
E077C0
D077C0
707000
687000
3FF7E0
17F7E0
0FF7E0
ENDCHAR
STARTCHAR oe
ENCODING 339
SWIDTH 637 0
DWIDTH 10 0
BBX 10 7 0 0
BITMAP
3FC0
5DC0
A600
C580
A580
5DC0
3FC0
ENDCHAR
STARTCHAR Wcircumflex
ENCODING 372
SWIDTH 972 0
DWIDTH 16 0
BBX 15 19 0 0
BITMAP
0280
0380
06C0
0AE0
0400
E34E
D38E
538E
72D4
76DC
6FDC
2FAC
3B68
3DF8
3EE8
2AE8
1E50
1C70
1C70
ENDCHAR
STARTCHAR wcircumflex
ENCODING 373
SWIDTH 521 0
DWIDTH 8 0
BBX 8 10 0 0
BITMAP
08
3C
00
DB
DB
5B
6D
6E
5A
56
ENDCHAR
STARTCHAR Ycircumflex
ENCODING 374
SWIDTH 769 0
DWIDTH 12 0
BBX 12 19 0 0
BITMAP
0600
0D00
1700
1980
0000
F070
70E0
5960
35C0
1F40
1780
0E80
0100
0500
0500
0500
0500
0500
0500
ENDCHAR
STARTCHAR ycircumflex
ENCODING 375
SWIDTH 422 0
DWIDTH 7 0
BBX 7 10 0 0
BITMAP
10
28
00
EE
6C
58
28
30
30
30
ENDCHAR
STARTCHAR Ydieresis
ENCODING 376
SWIDTH 769 0
DWIDTH 12 0
BBX 12 19 0 0
BITMAP
1980
2540
2540
1980
0000
F070
70E0
5960
35C0
1F40
1780
0E80
0100
0500
0500
0500
0500
0500
0500
ENDCHAR
STARTCHAR circumflex
ENCODING 710
SWIDTH 298 0
DWIDTH 5 0
BBX 3 2 1 8
BITMAP
40
A0
ENDCHAR
STARTCHAR dotaccent
ENCODING 729
SWIDTH 212 0
DWIDTH 3 0
BBX 1 2 1 8
BITMAP
80
80
ENDCHAR
STARTCHAR ring
ENCODING 730
SWIDTH 212 0
DWIDTH 3 0
BBX 2 2 1 8
BITMAP
C0
80
ENDCHAR
STARTCHAR tilde
ENCODING 732
SWIDTH 329 0
DWIDTH 5 0
BBX 3 2 1 8
BITMAP
E0
A0
ENDCHAR
STARTCHAR gravecomb
ENCODING 768
SWIDTH 0 0
DWIDTH 0 0
BBX 1 2 1 8
BITMAP
80
80
ENDCHAR
STARTCHAR acutecomb
ENCODING 769
SWIDTH 0 0
DWIDTH 0 0
BBX 1 2 1 8
BITMAP
80
80
ENDCHAR
STARTCHAR uni0302
ENCODING 770
SWIDTH 0 0
DWIDTH 0 0
BBX 3 2 1 8
BITMAP
40
A0
ENDCHAR
STARTCHAR tildecomb
ENCODING 771
SWIDTH 0 0
DWIDTH 0 0
BBX 3 2 1 8
BITMAP
E0
A0
ENDCHAR
STARTCHAR uni0307
ENCODING 775
SWIDTH 0 0
DWIDTH 0 0
BBX 1 2 1 8
BITMAP
80
80
ENDCHAR
STARTCHAR uni0308
ENCODING 776
SWIDTH 0 0
DWIDTH 0 0
BBX 3 1 1 8
BITMAP
A0
ENDCHAR
STARTCHAR uni030A
ENCODING 778
SWIDTH 0 0
DWIDTH 0 0
BBX 2 2 1 8
BITMAP
C0
80
ENDCHAR
STARTCHAR uni0327
ENCODING 807
SWIDTH 0 0
DWIDTH 0 0
BBX 2 3 1 -3
BITMAP
C0
40
C0
ENDCHAR
STARTCHAR Wgrave
ENCODING 7808
SWIDTH 972 0
DWIDTH 16 0
BBX 15 19 0 0
BITMAP
0300
0300
0180
0140
0000
E34E
D38E
538E
72D4
76DC
6FDC
2FAC
3B68
3DF8
3EE8
2AE8
1E50
1C70
1C70
ENDCHAR
STARTCHAR wgrave
ENCODING 7809
SWIDTH 521 0
DWIDTH 8 0
BBX 8 10 0 0
BITMAP
10
08
00
DB
DB
5B
6D
6E
5A
56
ENDCHAR
STARTCHAR Wacute
ENCODING 7810
SWIDTH 972 0
DWIDTH 16 0
BBX 15 19 0 0
BITMAP
00C0
0180
0280
0300
0000
E34E
D38E
538E
72D4
76DC
6FDC
2FAC
3B68
3DF8
3EE8
2AE8
1E50
1C70
1C70
ENDCHAR
STARTCHAR wacute
ENCODING 7811
SWIDTH 521 0
DWIDTH 8 0
BBX 8 10 0 0
BITMAP
08
18
00
DB
DB
5B
6D
6E
5A
56
ENDCHAR
STARTCHAR Wdieresis
ENCODING 7812
SWIDTH 972 0
DWIDTH 16 0
BBX 15 19 0 0
BITMAP
0460
0A90
0A90
0460
0000
E34E
D38E
538E
72D4
76DC
6FDC
2FAC
3B68
3DF8
3EE8
2AE8
1E50
1C70
1C70
ENDCHAR
STARTCHAR wdieresis
ENCODING 7813
SWIDTH 521 0
DWIDTH 8 0
BBX 8 9 0 0
BITMAP
14
00
DB
DB
5B
6D
6E
5A
56
ENDCHAR
STARTCHAR uni1E9E
ENCODING 7838
SWIDTH 784 0
DWIDTH 13 0
BBX 11 14 1 0
BITMAP
BFC0
BFC0
BFC0
A000
A380
A580
A780
ABC0
AF60
A0E0
A0E0
AF60
AFC0
AF80
ENDCHAR
STARTCHAR Ygrave
ENCODING 7922
SWIDTH 769 0
DWIDTH 12 0
BBX 12 19 0 0
BITMAP
0C00
0600
0600
0300
0000
F070
70E0
5960
35C0
1F40
1780
0E80
0100
0500
0500
0500
0500
0500
0500
ENDCHAR
STARTCHAR ygrave
ENCODING 7923
SWIDTH 422 0
DWIDTH 7 0
BBX 7 10 0 0
BITMAP
20
10
00
EE
6C
58
28
30
30
30
ENDCHAR
STARTCHAR endash
ENCODING 8211
SWIDTH 507 0
DWIDTH 8 0
BBX 6 2 1 2
BITMAP
FC
FC
ENDCHAR
STARTCHAR emdash
ENCODING 8212
SWIDTH 552 0
DWIDTH 9 0
BBX 7 2 1 2
BITMAP
FE
FE
ENDCHAR
STARTCHAR quoteleft
ENCODING 8216
SWIDTH 146 0
DWIDTH 2 0
BBX 2 2 0 5
BITMAP
80
C0
ENDCHAR
STARTCHAR quoteright
ENCODING 8217
SWIDTH 146 0
DWIDTH 2 0
BBX 2 2 0 5
BITMAP
C0
40
ENDCHAR
STARTCHAR quotesinglbase
ENCODING 8218
SWIDTH 146 0
DWIDTH 2 0
BBX 2 2 0 -2
BITMAP
C0
40
ENDCHAR
STARTCHAR quotedblleft
ENCODING 8220
SWIDTH 297 0
DWIDTH 5 0
BBX 4 2 0 5
BITMAP
90
D0
ENDCHAR
STARTCHAR quotedblright
ENCODING 8221
SWIDTH 297 0
DWIDTH 5 0
BBX 4 2 0 5
BITMAP
D0
50
ENDCHAR
STARTCHAR quotedblbase
ENCODING 8222
SWIDTH 297 0
DWIDTH 5 0
BBX 4 2 0 -2
BITMAP
D0
50
ENDCHAR
STARTCHAR bullet
ENCODING 8226
SWIDTH 302 0
DWIDTH 5 0
BBX 3 4 1 1
BITMAP
40
A0
A0
40
ENDCHAR
STARTCHAR ellipsis
ENCODING 8230
SWIDTH 528 0
DWIDTH 8 0
BBX 7 1 1 0
BITMAP
B6
ENDCHAR
STARTCHAR guilsinglleft
ENCODING 8249
SWIDTH 178 0
DWIDTH 3 0
BBX 1 3 1 2
BITMAP
80
80
80
ENDCHAR
STARTCHAR guilsinglright
ENCODING 8250
SWIDTH 178 0
DWIDTH 3 0
BBX 1 3 1 2
BITMAP
80
80
80
ENDCHAR
STARTCHAR fraction
ENCODING 8260
SWIDTH 362 0
DWIDTH 6 0
BBX 6 7 0 0
BITMAP
14
18
30
30
60
60
C0
ENDCHAR
STARTCHAR uni2074
ENCODING 8308
SWIDTH 204 0
DWIDTH 3 0
BBX 3 4 0 3
BITMAP
40
40
E0
E0
ENDCHAR
STARTCHAR Euro
ENCODING 8364
SWIDTH 462 0
DWIDTH 7 0
BBX 7 7 0 0
BITMAP
3C
5E
F0
00
F0
5E
3C
ENDCHAR
STARTCHAR trademark
ENCODING 8482
SWIDTH 461 0
DWIDTH 7 0
BBX 7 3 0 3
BITMAP
FA
56
52
ENDCHAR
STARTCHAR minus
ENCODING 8722
SWIDTH 420 0
DWIDTH 7 0
BBX 5 2 1 2
BITMAP
F8
F8
ENDCHAR
STARTCHAR uni2215
ENCODING 8725
SWIDTH 278 0
DWIDTH 4 0
BBX 4 7 0 0
BITMAP
30
30
30
50
60
60
A0
ENDCHAR
STARTCHAR .notdef
ENCODING -1
SWIDTH 500 0
DWIDTH 8 0
BBX 6 18 1 -4
BITMAP
FC
84
84
84
84
84
84
84
84
84
84
84
84
84
84
84
84
FC
ENDCHAR
STARTCHAR NULL
ENCODING -1
SWIDTH 600 0
DWIDTH 10 0
BBX 1 1 0 0
BITMAP
00
ENDCHAR
STARTCHAR acutecomb.case
ENCODING -1
SWIDTH 0 0
DWIDTH 0 0
BBX 4 4 1 15
BITMAP
30
60
A0
C0
ENDCHAR
STARTCHAR ampersand.case
ENCODING -1
SWIDTH 797 0
DWIDTH 13 0
BBX 12 14 0 0
BITMAP
0F00
1E80
3780
3940
3B40
2D80
3B00
5640
7B60
E6D0
E3A0
7EC0
5DA0
3EF0
ENDCHAR
STARTCHAR asciicircum.case
ENCODING -1
SWIDTH 540 0
DWIDTH 9 0
BBX 8 7 0 7
BITMAP
08
18
1C
3A
56
65
A3
ENDCHAR
STARTCHAR asciitilde.case
ENCODING -1
SWIDTH 640 0
DWIDTH 10 0
BBX 8 4 1 5
BITMAP
FF
F1
FF
8F
ENDCHAR
STARTCHAR asterisk.case
ENCODING -1
SWIDTH 482 0
DWIDTH 8 0
BBX 6 6 1 8
BITMAP
30
BC
C4
48
78
D8
ENDCHAR
STARTCHAR at.case
ENCODING -1
SWIDTH 915 0
DWIDTH 15 0
BBX 13 14 1 0
BITMAP
1FC0
2FA0
5050
A768
CF58
9958
9158
9158
9958
CEE8
A770
5000
2FC0
1F80
ENDCHAR
STARTCHAR backslash.case
ENCODING -1
SWIDTH 504 0
DWIDTH 8 0
BBX 8 16 0 -1
BITMAP
E0
E0
50
70
70
28
38
38
28
1C
1C
14
0E
0E
0A
07
ENDCHAR
STARTCHAR bar.case
ENCODING -1
SWIDTH 262 0
DWIDTH 4 0
BBX 2 16 1 -1
BITMAP
C0
C0
C0
C0
C0
C0
C0
C0
C0
C0
C0
C0
C0
C0
C0
C0
ENDCHAR
STARTCHAR braceleft.case
ENCODING -1
SWIDTH 504 0
DWIDTH 8 0
BBX 6 16 1 -1
BITMAP
54
54
54
50
50
50
50
D0
D0
D0
50
50
50
54
54
54
ENDCHAR
STARTCHAR braceright.case
ENCODING -1
SWIDTH 506 0
DWIDTH 8 0
BBX 6 16 1 -2
BITMAP
A8
A8
A8
28
28
28
2C
2C
2C
28
28
28
28
A8
A8
A8
ENDCHAR
STARTCHAR bracketleft.case
ENCODING -1
SWIDTH 453 0
DWIDTH 7 0
BBX 5 16 1 -1
BITMAP
B8
B8
B8
A0
A0
A0
A0
A0
A0
A0
A0
A0
A0
B8
B8
B8
ENDCHAR
STARTCHAR bracketright.case
ENCODING -1
SWIDTH 453 0
DWIDTH 7 0
BBX 5 16 1 -2
BITMAP
D8
D8
D8
18
18
18
18
18
18
18
18
18
18
D8
D8
D8
ENDCHAR
STARTCHAR brokenbar.case
ENCODING -1
SWIDTH 262 0
DWIDTH 4 0
BBX 2 16 1 0
BITMAP
C0
C0
C0
C0
C0
C0
C0
C0
00
C0
C0
C0
C0
C0
C0
C0
ENDCHAR
STARTCHAR bullet.case
ENCODING -1
SWIDTH 503 0
DWIDTH 8 0
BBX 6 7 1 3
BITMAP
78
B4
CC
8C
CC
B4
78
ENDCHAR
STARTCHAR uni0327.case
ENCODING -1
SWIDTH 0 0
DWIDTH 0 0
BBX 3 4 1 -4
BITMAP
40
E0
20
E0
ENDCHAR
STARTCHAR cent.case
ENCODING -1
SWIDTH 577 0
DWIDTH 9 0
BBX 8 15 1 -1
BITMAP
18
18
3E
5D
BE
E0
A0
A0
E0
BE
5D
3E
00
18
18
ENDCHAR
STARTCHAR uni0302.case
ENCODING -1
SWIDTH 0 0
DWIDTH 0 0
BBX 7 4 1 15
BITMAP
30
58
74
CE
ENDCHAR
STARTCHAR colon.case
ENCODING -1
SWIDTH 262 0
DWIDTH 4 0
BBX 2 9 1 0
BITMAP
C0
C0
C0
00
00
00
C0
C0
C0
ENDCHAR
STARTCHAR comma.case
ENCODING -1
SWIDTH 338 0
DWIDTH 5 0
BBX 4 4 1 -2
BITMAP
B0
E0
E0
E0
ENDCHAR
STARTCHAR copyright.case
ENCODING -1
SWIDTH 895 0
DWIDTH 14 0
BBX 14 14 0 0
BITMAP
0FC0
17A0
3870
6398
6754
CC8C
C80C
C80C
CC8C
6754
6398
3868
17B0
0FC0
ENDCHAR
STARTCHAR currency.case
ENCODING -1
SWIDTH 676 0
DWIDTH 11 0
BBX 10 10 0 1
BITMAP
2080
7180
6F40
1D80
3300
3300
5D80
EEC0
5140
2080
ENDCHAR
STARTCHAR degree.case
ENCODING -1
SWIDTH 413 0
DWIDTH 7 0
BBX 6 6 0 8
BITMAP
38
74
CC
CC
74
38
ENDCHAR
STARTCHAR uni0308.case
ENCODING -1
SWIDTH 0 0
DWIDTH 0 0
BBX 7 4 1 15
BITMAP
46
AA
AA
46
ENDCHAR
STARTCHAR divide.case
ENCODING -1
SWIDTH 618 0
DWIDTH 10 0
BBX 8 9 1 2
BITMAP
18
18
00
FF
FF
FF
08
14
08
ENDCHAR
STARTCHAR uni2215.case
ENCODING -1
SWIDTH 483 0
DWIDTH 8 0
BBX 7 14 0 0
BITMAP
0E
0E
14
1C
1C
14
38
38
28
68
70
70
D0
E0
ENDCHAR
STARTCHAR dollar.case
ENCODING -1
SWIDTH 660 0
DWIDTH 11 0
BBX 10 16 0 -1
BITMAP
0C00
0C00
3D00
5D80
BEC0
ED00
B000
5F00
3680
0FC0
0DC0
EDC0
7EC0
5F80
3D00
0C00
ENDCHAR
STARTCHAR eight.case
ENCODING -1
SWIDTH 561 0
DWIDTH 9 0
BBX 8 14 0 0
BITMAP
3E
5D
7B
E5
E3
B7
5F
75
AF
E3
E5
7B
5D
3E
ENDCHAR
STARTCHAR ellipsis.case
ENCODING -1
SWIDTH 766 0
DWIDTH 12 0
BBX 10 3 1 0
BITMAP
AAC0
AAC0
AAC0
ENDCHAR
STARTCHAR emdash.case
ENCODING -1
SWIDTH 790 0
DWIDTH 13 0
BBX 11 3 1 5
BITMAP
FFE0
FFE0
FFE0
ENDCHAR
STARTCHAR endash.case
ENCODING -1
SWIDTH 721 0
DWIDTH 12 0
BBX 10 3 1 5
BITMAP
FFC0
FFC0
FFC0
ENDCHAR
STARTCHAR equal.case
ENCODING -1
SWIDTH 618 0
DWIDTH 10 0
BBX 8 8 1 3
BITMAP
FF
FF
FF
00
00
FF
FF
FF
ENDCHAR
STARTCHAR Euro.case
ENCODING -1
SWIDTH 767 0
DWIDTH 12 0
BBX 12 14 0 0
BITMAP
07C0
1FE0
2BB0
3C40
5000
FF00
0000
FF00
FF00
5800
3C40
2BB0
1FE0
07C0
ENDCHAR
STARTCHAR exclam.case
ENCODING -1
SWIDTH 262 0
DWIDTH 4 0
BBX 2 14 1 0
BITMAP
C0
C0
C0
C0
C0
C0
C0
C0
C0
C0
00
C0
C0
C0
ENDCHAR
STARTCHAR exclamdown.case
ENCODING -1
SWIDTH 262 0
DWIDTH 4 0
BBX 2 14 1 -4
BITMAP
C0
C0
C0
00
C0
C0
C0
C0
C0
C0
C0
C0
C0
C0
ENDCHAR
STARTCHAR five.case
ENCODING -1
SWIDTH 558 0
DWIDTH 9 0
BBX 8 14 0 0
BITMAP
7F
7F
7F
00
50
5C
52
5D
5F
03
E3
BF
5D
3E
ENDCHAR
STARTCHAR four.case
ENCODING -1
SWIDTH 585 0
DWIDTH 9 0
BBX 9 14 0 0
BITMAP
0E00
1600
1C00
1400
3800
3800
6800
7500
0500
F580
F580
F580
0500
0500
ENDCHAR
STARTCHAR uni2074.case
ENCODING -1
SWIDTH 312 0
DWIDTH 5 0
BBX 5 6 0 8
BITMAP
30
60
60
D8
18
D8
ENDCHAR
STARTCHAR fraction.case
ENCODING -1
SWIDTH 655 0
DWIDTH 10 0
BBX 9 14 1 0
BITMAP
0280
0300
0500
0600
0A00
0C00
1400
1800
2800
3000
5000
6000
A000
C000
ENDCHAR
STARTCHAR gravecomb.case
ENCODING -1
SWIDTH 0 0
DWIDTH 0 0
BBX 4 4 1 15
BITMAP
C0
C0
60
70
ENDCHAR
STARTCHAR greater.case
ENCODING -1
SWIDTH 677 0
DWIDTH 11 0
BBX 9 11 1 1
BITMAP
8000
E000
D000
7C00
3F00
0B80
3E00
FC00
D000
E000
8000
ENDCHAR
STARTCHAR guillemotleft.case
ENCODING -1
SWIDTH 666 0
DWIDTH 11 0
BBX 9 9 1 2
BITMAP
1080
2100
7380
D680
E700
E380
B500
7380
1080
ENDCHAR
STARTCHAR guillemotright.case
ENCODING -1
SWIDTH 666 0
DWIDTH 11 0
BBX 9 9 1 2
BITMAP
8400
C200
A500
D780
7380
A700
7380
C600
8400
ENDCHAR
STARTCHAR guilsinglleft.case
ENCODING -1
SWIDTH 338 0
DWIDTH 5 0
BBX 4 9 1 2
BITMAP
10
20
70
D0
E0
E0
B0
70
10
ENDCHAR
STARTCHAR guilsinglright.case
ENCODING -1
SWIDTH 338 0
DWIDTH 5 0
BBX 4 9 1 2
BITMAP
80
C0
A0
D0
70
A0
70
C0
80
ENDCHAR
STARTCHAR hyphen.case
ENCODING -1
SWIDTH 445 0
DWIDTH 7 0
BBX 5 3 1 5
BITMAP
F8
F8
F8
ENDCHAR
STARTCHAR less.case
ENCODING -1
SWIDTH 677 0
DWIDTH 11 0
BBX 9 11 1 1
BITMAP
0080
0380
0580
1F00
2E00
F800
7E00
1500
0F80
0380
0080
ENDCHAR
STARTCHAR logicalnot.case
ENCODING -1
SWIDTH 618 0
DWIDTH 10 0
BBX 8 6 1 2
BITMAP
FF
FF
FF
07
07
07
ENDCHAR
STARTCHAR uni00B5.case
ENCODING -1
SWIDTH 792 0
DWIDTH 13 0
BBX 11 17 1 -3
BITMAP
A140
A140
A140
A140
A140
A140
A140
A140
A140
A140
A3C0
BDE0
BFA0
BE60
A000
A000
A000
ENDCHAR
STARTCHAR minus.case
ENCODING -1
SWIDTH 618 0
DWIDTH 10 0
BBX 8 3 1 5
BITMAP
FF
FF
FF
ENDCHAR
STARTCHAR multiply.case
ENCODING -1
SWIDTH 580 0
DWIDTH 9 0
BBX 8 8 1 2
BITMAP
44
EB
B6
6C
5C
B7
6A
44
ENDCHAR
STARTCHAR nine.case
ENCODING -1
SWIDTH 558 0
DWIDTH 9 0
BBX 8 14 0 -1
BITMAP
3E
5D
7B
E5
E3
BB
5B
63
1B
03
E5
BB
5D
3E
ENDCHAR
STARTCHAR numbersign.case
ENCODING -1
SWIDTH 776 0
DWIDTH 12 0
BBX 11 14 1 0
BITMAP
39C0
39C0
3800
FFE0
AFE0
D7E0
7000
0380
FFC0
FAC0
FD40
5700
5700
E700
ENDCHAR
STARTCHAR one.case
ENCODING -1
SWIDTH 378 0
DWIDTH 6 0
BBX 5 14 0 0
BITMAP
F8
F8
F8
38
38
38
38
38
38
38
38
38
38
38
ENDCHAR
STARTCHAR onehalf.case
ENCODING -1
SWIDTH 735 0
DWIDTH 12 0
BBX 10 14 1 0
BITMAP
E180
E180
6300
6300
6600
6600
0C00
0D80
1BC0
28C0
3180
53C0
63C0
A000
ENDCHAR
STARTCHAR onequarter.case
ENCODING -1
SWIDTH 722 0
DWIDTH 12 0
BBX 10 14 1 0
BITMAP
E180
E180
6300
6300
6600
6600
0C00
0D80
1A80
2B00
33C0
50C0
63C0
A000
ENDCHAR
STARTCHAR uni00B9.case
ENCODING -1
SWIDTH 306 0
DWIDTH 5 0
BBX 3 6 1 8
BITMAP
E0
E0
60
60
60
60
ENDCHAR
STARTCHAR ordfeminine.case
ENCODING -1
SWIDTH 456 0
DWIDTH 7 0
BBX 6 6 1 8
BITMAP
50
70
68
B8
F8
F4
ENDCHAR
STARTCHAR ordmasculine.case
ENCODING -1
SWIDTH 489 0
DWIDTH 8 0
BBX 6 7 1 7
BITMAP
78
B4
CC
8C
CC
BC
70
ENDCHAR
STARTCHAR paragraph.case
ENCODING -1
SWIDTH 893 0
DWIDTH 14 0
BBX 13 14 0 0
BITMAP
3FF8
5FF8
BFF8
E1A8
E1A8
BFA8
5FA8
41A8
3FA8
01A8
01A8
01A8
01A8
01A8
ENDCHAR
STARTCHAR parenleft.case
ENCODING -1
SWIDTH 290 0
DWIDTH 5 0
BBX 5 16 0 -1
BITMAP
38
38
70
70
50
A0
E0
E0
E0
E0
D0
50
70
70
50
38
ENDCHAR
STARTCHAR parenright.case
ENCODING -1
SWIDTH 290 0
DWIDTH 5 0
BBX 4 16 0 -2
BITMAP
A0
E0
D0
70
70
70
70
70
70
70
70
70
50
E0
E0
C0
ENDCHAR
STARTCHAR percent.case
ENCODING -1
SWIDTH 827 0
DWIDTH 13 0
BBX 13 14 0 0
BITMAP
3878
7470
CCD0
CD60
75C0
3AC0
0380
0E00
16E0
1D70
3598
3998
6968
B0F0
ENDCHAR
STARTCHAR period.case
ENCODING -1
SWIDTH 262 0
DWIDTH 4 0
BBX 2 3 1 0
BITMAP
C0
C0
C0
ENDCHAR
STARTCHAR periodcentered.case
ENCODING -1
SWIDTH 262 0
DWIDTH 4 0
BBX 2 3 1 5
BITMAP
C0
C0
C0
ENDCHAR
STARTCHAR plus.case
ENCODING -1
SWIDTH 616 0
DWIDTH 10 0
BBX 8 9 1 2
BITMAP
38
38
38
FB
FB
FB
38
38
38
ENDCHAR
STARTCHAR plusminus.case
ENCODING -1
SWIDTH 618 0
DWIDTH 10 0
BBX 8 12 1 0
BITMAP
38
38
38
FB
FB
FB
38
38
38
FF
FF
FF
ENDCHAR
STARTCHAR question.case
ENCODING -1
SWIDTH 598 0
DWIDTH 10 0
BBX 8 14 1 0
BITMAP
3C
FA
DD
A7
07
0B
16
2C
38
38
00
38
38
38
ENDCHAR
STARTCHAR questiondown.case
ENCODING -1
SWIDTH 598 0
DWIDTH 10 0
BBX 8 14 1 -4
BITMAP
38
38
38
00
38
38
58
B0
E0
A0
A7
DD
FA
3C
ENDCHAR
STARTCHAR quotedbl.case
ENCODING -1
SWIDTH 464 0
DWIDTH 7 0
BBX 7 4 0 10
BITMAP
EE
EE
EE
EE
ENDCHAR
STARTCHAR quotedblbase.case
ENCODING -1
SWIDTH 464 0
DWIDTH 7 0
BBX 7 4 0 0
BITMAP
EE
EE
EE
66
ENDCHAR
STARTCHAR quotedblleft.case
ENCODING -1
SWIDTH 464 0
DWIDTH 7 0
BBX 7 4 0 8
BITMAP
CC
EE
EE
EE
ENDCHAR
STARTCHAR quotedblright.case
ENCODING -1
SWIDTH 464 0
DWIDTH 7 0
BBX 7 4 0 10
BITMAP
EE
EE
EE
66
ENDCHAR
STARTCHAR quoteleft.case
ENCODING -1
SWIDTH 212 0
DWIDTH 3 0
BBX 3 4 0 8
BITMAP
C0
E0
E0
E0
ENDCHAR
STARTCHAR quoteright.case
ENCODING -1
SWIDTH 212 0
DWIDTH 3 0
BBX 3 4 0 10
BITMAP
E0
E0
E0
60
ENDCHAR
STARTCHAR quotesinglbase.case
ENCODING -1
SWIDTH 212 0
DWIDTH 3 0
BBX 3 4 0 0
BITMAP
E0
E0
E0
60
ENDCHAR
STARTCHAR quotesingle.case
ENCODING -1
SWIDTH 212 0
DWIDTH 3 0
BBX 3 4 0 10
BITMAP
E0
E0
E0
E0
ENDCHAR
STARTCHAR registered.case
ENCODING -1
SWIDTH 895 0
DWIDTH 14 0
BBX 14 14 0 0
BITMAP
0FC0
17A0
3870
6B98
6BD4
CCCC
CBCC
CD8C
CD4C
6CD4
6018
3868
17B0
0FC0
ENDCHAR
STARTCHAR uni030A.case
ENCODING -1
SWIDTH 0 0
DWIDTH 0 0
BBX 3 4 1 14
BITMAP
40
A0
A0
40
ENDCHAR
STARTCHAR section.case
ENCODING -1
SWIDTH 645 0
DWIDTH 10 0
BBX 10 17 0 -2
BITMAP
0E00
3F80
6EC0
7100
5C00
2F00
1D80
6A80
7140
7780
7E80
2F80
1D80
0280
FF80
5E80
3F00
ENDCHAR
STARTCHAR semicolon.case
ENCODING -1
SWIDTH 338 0
DWIDTH 5 0
BBX 4 11 1 -2
BITMAP
70
70
70
00
00
00
10
A0
E0
E0
E0
ENDCHAR
STARTCHAR seven.case
ENCODING -1
SWIDTH 505 0
DWIDTH 8 0
BBX 7 14 0 0
BITMAP
FE
FE
FE
0E
0E
0E
0A
1C
1C
1C
14
38
38
38
ENDCHAR
STARTCHAR six.case
ENCODING -1
SWIDTH 558 0
DWIDTH 9 0
BBX 8 14 0 0
BITMAP
3E
5D
7F
E3
E0
EC
E2
ED
EF
E3
E3
7F
5D
3E
ENDCHAR
STARTCHAR slash.case
ENCODING -1
SWIDTH 504 0
DWIDTH 8 0
BBX 8 16 0 -1
BITMAP
07
05
0E
0E
0A
1A
1C
1C
34
38
38
68
70
70
A0
E0
ENDCHAR
STARTCHAR uni00AD.case
ENCODING -1
SWIDTH 445 0
DWIDTH 7 0
BBX 5 3 1 5
BITMAP
F8
F8
F8
ENDCHAR
STARTCHAR sterling.case
ENCODING -1
SWIDTH 618 0
DWIDTH 10 0
BBX 9 14 0 0
BITMAP
1F00
6E80
7D80
A280
A000
7000
FE00
FE00
FE00
7000
0000
FF80
FF80
FF80
ENDCHAR
STARTCHAR three.case
ENCODING -1
SWIDTH 558 0
DWIDTH 9 0
BBX 8 14 0 0
BITMAP
3E
5D
BF
E3
03
0D
02
0D
0F
03
E3
BF
5D
3E
ENDCHAR
STARTCHAR threequarters.case
ENCODING -1
SWIDTH 722 0
DWIDTH 12 0
BBX 10 14 1 0
BITMAP
E180
D180
2300
5300
D600
9600
6C00
0D80
1A80
2B00
33C0
50C0
63C0
A000
ENDCHAR
STARTCHAR uni00B3.case
ENCODING -1
SWIDTH 332 0
DWIDTH 5 0
BBX 4 7 1 7
BITMAP
E0
D0
20
50
D0
90
60
ENDCHAR
STARTCHAR tildecomb.case
ENCODING -1
SWIDTH 0 0
DWIDTH 0 0
BBX 6 3 1 15
BITMAP
44
A4
98
ENDCHAR
STARTCHAR trademark.case
ENCODING -1
SWIDTH 850 0
DWIDTH 14 0
BBX 13 7 0 6
BITMAP
FB18
FBB8
3358
33B8
3358
3318
3318
ENDCHAR
STARTCHAR two.case
ENCODING -1
SWIDTH 558 0
DWIDTH 9 0
BBX 8 14 0 0
BITMAP
3E
5D
7B
E5
03
07
0B
0E
1A
34
68
7F
7F
7F
ENDCHAR
STARTCHAR uni00B2.case
ENCODING -1
SWIDTH 339 0
DWIDTH 5 0
BBX 4 6 1 8
BITMAP
E0
D0
60
A0
F0
F0
ENDCHAR
STARTCHAR underscore.case
ENCODING -1
SWIDTH 667 0
DWIDTH 11 0
BBX 9 3 1 0
BITMAP
FF80
FF80
FF80
ENDCHAR
STARTCHAR yen.case
ENCODING -1
SWIDTH 769 0
DWIDTH 12 0
BBX 12 14 0 0
BITMAP
D070
70E0
5960
39C0
2EC0
1B80
0E80
0D00
0000
35C0
35C0
35C0
0500
0500
ENDCHAR
STARTCHAR zero.case
ENCODING -1
SWIDTH 558 0
DWIDTH 9 0
BBX 8 14 0 0
BITMAP
3E
5D
7B
E5
E3
E3
E3
E3
E3
E3
E5
7B
5D
3E
ENDCHAR
ENDFONT
